<?xml version="1.0" encoding="UTF-8"?>
<svg xmlns="http://www.w3.org/2000/svg" xmlns:xlink="http://www.w3.org/1999/xlink" width="1000pt" height="1400pt" viewBox="0 0 1000 1400" version="1.1">
<g id="surface1">
<rect x="0" y="0" width="1000" height="1400" style="fill:rgb(92.941176%,10.588235%,14.117647%);fill-opacity:1;stroke:none;"/>
<path style=" stroke:none;fill-rule:nonzero;fill:rgb(99.215686%,98.823529%,98.823529%);fill-opacity:1;" d="M 300.5 0 L 321 0 C 320.898438 137.199219 321 274.398438 320.898438 411.601562 C 321 441.300781 309.898438 471.800781 287.699219 492 C 254.898438 522 208 528.199219 165.300781 527.5 C 120.199219 526.699219 70.300781 514.101562 42.199219 476 C 18.101562 444.601562 16.699219 403.398438 18.300781 365.5 C 25.398438 365.398438 32.601562 365.5 39.699219 365.699219 C 39.898438 396.199219 36.300781 429.199219 53.5 456.398438 C 79 499 133.601562 508.199219 179.199219 506.601562 C 213.398438 506 250.5 499.300781 275.800781 474.601562 C 296.699219 453.898438 301.5 423.101562 300.398438 394.898438 C 300.5 263.199219 300.398438 131.601562 300.5 0 Z M 300.5 0 "/>
<path style=" stroke:none;fill-rule:nonzero;fill:rgb(99.215686%,98.823529%,98.823529%);fill-opacity:1;" d="M 360.300781 0 L 382.101562 0 C 382.398438 87.101562 381.699219 174.101562 382.5 261.199219 C 463.398438 174.199219 544.398438 87.300781 625 0 L 650.199219 0 C 570.398438 87.101562 489.800781 173.601562 409.800781 260.5 C 499.199219 348.5 588.699219 436.5 677.800781 524.800781 C 668.800781 525.300781 659.800781 525.398438 650.699219 525.101562 C 561.101562 437.800781 471.800781 350.101562 382.398438 262.601562 C 381.5 350.101562 382.5 437.601562 382 525 C 374.898438 525.199219 367.699219 525.199219 360.5 525 C 360.398438 350.101562 360.898438 175 360.300781 0 Z M 360.300781 0 "/>
<path style=" stroke:none;fill-rule:nonzero;fill:rgb(99.215686%,98.823529%,98.823529%);fill-opacity:1;" d="M 476.398438 541 C 543.898438 518 624.898438 564.5 636.300781 635.5 C 647.601562 690.800781 613.898438 748.601562 563 770.699219 C 626.199219 791.398438 673 854.199219 671.5 921.101562 C 671 998.199219 606.898438 1069.199219 529.5 1074.699219 C 448.898438 1085.800781 368.5 1023.5 356.898438 943.398438 C 342.898438 869.398438 393.101562 794.699219 462.300781 770.199219 C 418.398438 750.199219 386.300781 704 387.800781 655.199219 C 388.5 603.300781 427.101562 555.699219 476.398438 541 M 491 555.5 C 459.898438 561.898438 432.101562 583 418.800781 612 C 396.101562 656.898438 411.300781 717.300781 454.199219 744.398438 C 489.300781 768.101562 538.398438 767.699219 573.199219 743.601562 C 615.398438 715.898438 629.800781 655.699219 607.101562 611.199219 C 587.199219 568.800781 536.398438 545.101562 491 555.5 M 491.199219 782.800781 C 449.199219 789.199219 411.101562 816.101562 391.300781 853.699219 C 363.398438 905.398438 372.398438 974.898438 414.5 1016.398438 C 454 1057.5 520 1068.800781 571.398438 1044.398438 C 611.398438 1026.5 641.300781 987.898438 648.5 944.601562 C 658.898438 892.601562 636.199219 835.199219 591.898438 805.5 C 562.898438 785 526.101562 778.300781 491.199219 782.800781 Z M 491.199219 782.800781 "/>
<path style=" stroke:none;fill-rule:nonzero;fill:rgb(100%,100%,100%);fill-opacity:1;" d="M 975.398438 0 L 667.898438 0 L 667.898438 20.898438 L 810.800781 20.898438 L 810.800781 525.5 L 832.601562 525.5 L 832.601562 388.101562 C 832.800781 343.300781 832.699219 298.398438 832.601562 253.5 L 832.601562 20.898438 L 975.300781 20.898438 L 975.300781 6 C 975.5 4 975.5 2 975.398438 0 Z M 975.398438 0 "/>
<path style=" stroke:none;fill-rule:nonzero;fill:rgb(100%,100%,100%);fill-opacity:1;" d="M 281.101562 945.300781 L 281.101562 544.398438 C 274 544.398438 266.398438 544.398438 259.300781 544.398438 L 259.300781 544.5 C 256.699219 544.5 254.199219 544.601562 251.601562 544.699219 C 167.601562 671.699219 83.898438 798.898438 0 926 C 0 935.699219 0 955.101562 0 964.800781 C 86.398438 964.898438 172.699219 964.800781 259.101562 964.800781 C 259.5 996.601562 259.101562 1034.5 259.300781 1066.199219 C 266.601562 1066.300781 273.898438 1066.199219 281.101562 1066.199219 L 281.101562 964.800781 C 297.601562 964.800781 316 964.800781 332.5 964.800781 L 332.5 945.300781 Z M 258.898438 570 C 259.699219 687.699219 259.101562 827.898438 259.300781 945.300781 L 10.800781 945.300781 C 93.800781 820.398438 175.898438 694.898438 258.898438 570 Z M 258.898438 570 "/>
</g>
</svg>
